# xmcd
#
# Track frame offsets: 
#        150
#        4223
#        54475
#        85483
#
# Disc length: 1925 seconds
#
# Revision: 0
# Processed by: cddbd v1.5.2PL0 Copyright (c) Steve Scherf et al.
# Submitted via: ExactAudioCopy v0.95b3
#
DISCID=2a078304
DTITLE=Shemekia Copeland - In the Royal Garden
DYEAR=2004
DGENRE=Blues
TTITLE0=Encore intro
TTITLE1=Ghetto Child
TTITLE2=When a Woman's Had Enough
TTITLE3=Let The Good Times Roll
EXTD=
EXTT0=
EXTT1=
EXTT2=
EXTT3=
PLAYORDER=
